<mxfile host="app.diagrams.net" modified="2021-06-07T16:15:51.702Z" agent="5.0 (Windows NT 10.0; Win64; x64) AppleWebKit/537.36 (KHTML, like Gecko) Chrome/91.0.4472.77 Safari/537.36" etag="B2EIxD0X07-cMTijiY8b" version="14.7.5" type="github">
  <diagram id="LKf-QqpvdzstYzpTMYsO" name="Page-1">
    <mxGraphModel dx="2249" dy="762" grid="1" gridSize="10" guides="1" tooltips="1" connect="1" arrows="1" fold="1" page="1" pageScale="1" pageWidth="827" pageHeight="1169" math="0" shadow="0">
      <root>
        <mxCell id="0" />
        <mxCell id="1" parent="0" />
        <mxCell id="6OZgjaoG5BjDXJgA3PBl-124" value="" style="shape=table;html=1;whiteSpace=wrap;startSize=0;container=1;collapsible=0;childLayout=tableLayout;" vertex="1" parent="1">
          <mxGeometry x="-240" y="320" width="960" height="80" as="geometry" />
        </mxCell>
        <mxCell id="6OZgjaoG5BjDXJgA3PBl-125" value="" style="shape=partialRectangle;html=1;whiteSpace=wrap;collapsible=0;dropTarget=0;pointerEvents=0;fillColor=none;top=0;left=0;bottom=0;right=0;points=[[0,0.5],[1,0.5]];portConstraint=eastwest;" vertex="1" parent="6OZgjaoG5BjDXJgA3PBl-124">
          <mxGeometry width="960" height="80" as="geometry" />
        </mxCell>
        <mxCell id="6OZgjaoG5BjDXJgA3PBl-126" value="" style="shape=partialRectangle;html=1;whiteSpace=wrap;connectable=0;overflow=hidden;fillColor=none;top=0;left=0;bottom=0;right=0;" vertex="1" parent="6OZgjaoG5BjDXJgA3PBl-125">
          <mxGeometry width="121" height="80" as="geometry" />
        </mxCell>
        <mxCell id="6OZgjaoG5BjDXJgA3PBl-127" value="" style="shape=partialRectangle;html=1;whiteSpace=wrap;connectable=0;overflow=hidden;fillColor=none;top=0;left=0;bottom=0;right=0;" vertex="1" parent="6OZgjaoG5BjDXJgA3PBl-125">
          <mxGeometry x="121" width="122" height="80" as="geometry" />
        </mxCell>
        <mxCell id="6OZgjaoG5BjDXJgA3PBl-128" value="" style="shape=partialRectangle;html=1;whiteSpace=wrap;connectable=0;overflow=hidden;fillColor=none;top=0;left=0;bottom=0;right=0;" vertex="1" parent="6OZgjaoG5BjDXJgA3PBl-125">
          <mxGeometry x="243" width="118" height="80" as="geometry" />
        </mxCell>
        <mxCell id="6OZgjaoG5BjDXJgA3PBl-129" value="" style="shape=partialRectangle;html=1;whiteSpace=wrap;connectable=0;overflow=hidden;fillColor=none;top=0;left=0;bottom=0;right=0;" vertex="1" parent="6OZgjaoG5BjDXJgA3PBl-125">
          <mxGeometry x="361" width="119" height="80" as="geometry" />
        </mxCell>
        <mxCell id="6OZgjaoG5BjDXJgA3PBl-130" value="" style="shape=partialRectangle;html=1;whiteSpace=wrap;connectable=0;overflow=hidden;fillColor=none;top=0;left=0;bottom=0;right=0;" vertex="1" parent="6OZgjaoG5BjDXJgA3PBl-125">
          <mxGeometry x="480" width="121" height="80" as="geometry" />
        </mxCell>
        <mxCell id="6OZgjaoG5BjDXJgA3PBl-131" value="" style="shape=partialRectangle;html=1;whiteSpace=wrap;connectable=0;overflow=hidden;fillColor=none;top=0;left=0;bottom=0;right=0;" vertex="1" parent="6OZgjaoG5BjDXJgA3PBl-125">
          <mxGeometry x="601" width="122" height="80" as="geometry" />
        </mxCell>
        <mxCell id="6OZgjaoG5BjDXJgA3PBl-132" value="" style="shape=partialRectangle;html=1;whiteSpace=wrap;connectable=0;overflow=hidden;fillColor=none;top=0;left=0;bottom=0;right=0;" vertex="1" parent="6OZgjaoG5BjDXJgA3PBl-125">
          <mxGeometry x="723" width="118" height="80" as="geometry" />
        </mxCell>
        <mxCell id="6OZgjaoG5BjDXJgA3PBl-133" value="" style="shape=partialRectangle;html=1;whiteSpace=wrap;connectable=0;overflow=hidden;fillColor=none;top=0;left=0;bottom=0;right=0;" vertex="1" parent="6OZgjaoG5BjDXJgA3PBl-125">
          <mxGeometry x="841" width="119" height="80" as="geometry" />
        </mxCell>
        <mxCell id="6OZgjaoG5BjDXJgA3PBl-134" value="&lt;font style=&quot;font-size: 16px&quot;&gt;zippo&lt;br&gt;[0] [0]&lt;/font&gt;" style="text;html=1;strokeColor=none;fillColor=none;align=center;verticalAlign=middle;whiteSpace=wrap;rounded=0;" vertex="1" parent="1">
          <mxGeometry x="-220" y="340" width="80" height="40" as="geometry" />
        </mxCell>
        <mxCell id="6OZgjaoG5BjDXJgA3PBl-135" value="&lt;font style=&quot;font-size: 16px&quot;&gt;zippo&lt;br&gt;[1] [1]&lt;/font&gt;" style="text;html=1;strokeColor=none;fillColor=none;align=center;verticalAlign=middle;whiteSpace=wrap;rounded=0;" vertex="1" parent="1">
          <mxGeometry x="140" y="340" width="80" height="40" as="geometry" />
        </mxCell>
        <mxCell id="6OZgjaoG5BjDXJgA3PBl-136" value="&lt;font style=&quot;font-size: 16px&quot;&gt;zippo&lt;br&gt;[2] [0]&lt;/font&gt;" style="text;html=1;strokeColor=none;fillColor=none;align=center;verticalAlign=middle;whiteSpace=wrap;rounded=0;" vertex="1" parent="1">
          <mxGeometry x="260" y="340" width="80" height="40" as="geometry" />
        </mxCell>
        <mxCell id="6OZgjaoG5BjDXJgA3PBl-137" value="&lt;font style=&quot;font-size: 16px&quot;&gt;zippo&lt;br&gt;[2] [1]&lt;/font&gt;" style="text;html=1;strokeColor=none;fillColor=none;align=center;verticalAlign=middle;whiteSpace=wrap;rounded=0;" vertex="1" parent="1">
          <mxGeometry x="380" y="340" width="80" height="40" as="geometry" />
        </mxCell>
        <mxCell id="6OZgjaoG5BjDXJgA3PBl-138" value="&lt;font style=&quot;font-size: 16px&quot;&gt;zippo&lt;br&gt;[3] [0]&lt;/font&gt;" style="text;html=1;strokeColor=none;fillColor=none;align=center;verticalAlign=middle;whiteSpace=wrap;rounded=0;" vertex="1" parent="1">
          <mxGeometry x="500" y="340" width="80" height="40" as="geometry" />
        </mxCell>
        <mxCell id="6OZgjaoG5BjDXJgA3PBl-139" value="&lt;font style=&quot;font-size: 16px&quot;&gt;zippo&lt;br&gt;[0] [1]&lt;/font&gt;" style="text;html=1;strokeColor=none;fillColor=none;align=center;verticalAlign=middle;whiteSpace=wrap;rounded=0;" vertex="1" parent="1">
          <mxGeometry x="620" y="340" width="80" height="40" as="geometry" />
        </mxCell>
        <mxCell id="6OZgjaoG5BjDXJgA3PBl-140" value="&lt;font style=&quot;font-size: 16px&quot;&gt;zippo&lt;br&gt;[0] [1]&lt;/font&gt;" style="text;html=1;strokeColor=none;fillColor=none;align=center;verticalAlign=middle;whiteSpace=wrap;rounded=0;" vertex="1" parent="1">
          <mxGeometry x="-100" y="340" width="80" height="40" as="geometry" />
        </mxCell>
        <mxCell id="6OZgjaoG5BjDXJgA3PBl-141" value="&lt;font style=&quot;font-size: 16px&quot;&gt;zippo&lt;br&gt;[1] [0]&lt;/font&gt;" style="text;html=1;strokeColor=none;fillColor=none;align=center;verticalAlign=middle;whiteSpace=wrap;rounded=0;" vertex="1" parent="1">
          <mxGeometry x="20" y="340" width="80" height="40" as="geometry" />
        </mxCell>
      </root>
    </mxGraphModel>
  </diagram>
</mxfile>
